<svg width="96" height="96" viewBox="0 0 96 96" fill="none" xmlns="http://www.w3.org/2000/svg">
<path d="M76.27 30.9863C76.1396 30.7314 75.9347 30.5221 75.6827 30.3861L48.6601 16.1639C48.4558 16.0562 48.2283 16 47.9973 16C47.7664 16 47.5389 16.0562 47.3346 16.1639L20.312 30.3861C20.0605 30.5221 19.8558 30.7308 19.7246 30.9849L47.9973 45.8671L76.27 30.9863Z" fill="url(#paint0_linear_101_1480)"/>
<path d="M47.9973 45.8671L47.9985 80C48.2295 80.0001 48.4569 79.944 48.6613 79.8364L75.6839 65.6142C75.9131 65.4934 76.105 65.3124 76.2389 65.0906C76.3727 64.8687 76.4434 64.6146 76.4434 64.3555V31.6443C76.4409 31.414 76.3806 31.1883 76.27 30.9863L47.9973 45.8671Z" fill="url(#paint1_linear_101_1480)"/>
<path d="M19.7246 30.9849C19.6146 31.1876 19.5557 31.4137 19.5527 31.6444V64.3556C19.5527 64.6147 19.6234 64.8689 19.7572 65.0907C19.8911 65.3125 20.083 65.4936 20.3122 65.6143L47.3348 79.8366C47.5391 79.9441 47.7676 80.0001 47.9985 80L47.9973 45.8671L19.7246 30.9849Z" fill="url(#paint2_linear_101_1480)"/>
<g filter="url(#filter0_bi_101_1480)">
<path d="M90.4089 22.4793C90.2132 22.0969 89.906 21.7829 89.5279 21.579L48.9947 0.245791C48.6882 0.084361 48.347 0 48.0006 0C47.6542 0 47.313 0.084361 47.0065 0.245791L6.47335 21.579C6.09605 21.783 5.78901 22.096 5.59229 22.4772L48.0006 44.8002L90.4089 22.4793Z" fill="url(#paint3_linear_101_1480)" fill-opacity="0.2"/>
<path d="M89.2926 22.0202C89.4325 22.0959 89.5597 22.1914 89.6705 22.3029L48.0006 44.2352L6.33216 22.3016C6.44289 22.1907 6.56961 22.0957 6.70888 22.0201C6.70964 22.0197 6.7104 22.0193 6.71116 22.0188L47.2394 0.688251L47.2395 0.688184C47.4742 0.564589 47.7354 0.5 48.0006 0.5C48.2658 0.5 48.5271 0.564589 48.7617 0.688184L48.7619 0.688251L89.2905 22.0191C89.2912 22.0195 89.2919 22.0199 89.2926 22.0202Z" stroke="url(#paint4_linear_101_1480)" stroke-opacity="0.1"/>
</g>
<g filter="url(#filter1_bi_101_1480)">
<path d="M48.0005 44.7995V95.9992C48.3469 95.9994 48.6881 95.9152 48.9946 95.7539L89.5278 74.4207C89.8716 74.2396 90.1594 73.968 90.3602 73.6353C90.561 73.3025 90.667 72.9213 90.667 72.5327V23.4662C90.6633 23.1208 90.5747 22.7816 90.4088 22.4785L48.0005 44.7995Z" fill="url(#paint5_linear_101_1480)" fill-opacity="0.2"/>
<path d="M90.167 72.5328L90.167 72.5327L90.167 23.4691C90.1658 23.3737 90.1562 23.279 90.1383 23.1859L48.5005 45.1013V95.4211C48.5903 95.3923 48.6777 95.3556 48.7617 95.3114L90.167 72.5328ZM90.167 72.5328C90.167 72.8303 90.0858 73.1222 89.9321 73.377C89.7784 73.6317 89.5581 73.8396 89.2949 73.9782C89.2948 73.9782 89.2948 73.9782 89.2948 73.9783L48.7618 95.3114L90.167 72.5328Z" stroke="url(#paint6_linear_101_1480)" stroke-opacity="0.1"/>
</g>
<g filter="url(#filter2_bi_101_1480)">
<path d="M5.59212 22.4766C5.42707 22.7807 5.33847 23.1204 5.33398 23.4664V72.5329C5.3339 72.9215 5.43997 73.3027 5.64074 73.6355C5.8415 73.9682 6.12934 74.2398 6.47318 74.4208L47.0063 95.7541C47.3129 95.9153 47.6541 95.9996 48.0004 95.9994V44.7997L5.59212 22.4766Z" fill="url(#paint7_linear_101_1480)" fill-opacity="0.2"/>
<path d="M47.5005 45.1015V95.4213C47.4106 95.3924 47.3232 95.3558 47.2391 95.3116L6.70618 73.9785C6.70614 73.9784 6.70609 73.9784 6.70605 73.9784C6.44286 73.8397 6.22253 73.6318 6.06884 73.3771C5.91513 73.1224 5.83392 72.8305 5.83398 72.533V72.5329V23.4699C5.83541 23.3737 5.84532 23.2782 5.86343 23.1844L47.5005 45.1015Z" stroke="url(#paint8_linear_101_1480)" stroke-opacity="0.1"/>
</g>
<defs>
<filter id="filter0_bi_101_1480" x="-6.40771" y="-12" width="108.817" height="68.8003" filterUnits="userSpaceOnUse" color-interpolation-filters="sRGB">
<feFlood flood-opacity="0" result="BackgroundImageFix"/>
<feGaussianBlur in="BackgroundImageFix" stdDeviation="6"/>
<feComposite in2="SourceAlpha" operator="in" result="effect1_backgroundBlur_101_1480"/>
<feBlend mode="normal" in="SourceGraphic" in2="effect1_backgroundBlur_101_1480" result="shape"/>
<feColorMatrix in="SourceAlpha" type="matrix" values="0 0 0 0 0 0 0 0 0 0 0 0 0 0 0 0 0 0 127 0" result="hardAlpha"/>
<feOffset dy="2"/>
<feGaussianBlur stdDeviation="4"/>
<feComposite in2="hardAlpha" operator="arithmetic" k2="-1" k3="1"/>
<feColorMatrix type="matrix" values="0 0 0 0 1 0 0 0 0 1 0 0 0 0 1 0 0 0 0.4 0"/>
<feBlend mode="normal" in2="shape" result="effect2_innerShadow_101_1480"/>
</filter>
<filter id="filter1_bi_101_1480" x="36.0005" y="10.4785" width="66.6664" height="97.5208" filterUnits="userSpaceOnUse" color-interpolation-filters="sRGB">
<feFlood flood-opacity="0" result="BackgroundImageFix"/>
<feGaussianBlur in="BackgroundImageFix" stdDeviation="6"/>
<feComposite in2="SourceAlpha" operator="in" result="effect1_backgroundBlur_101_1480"/>
<feBlend mode="normal" in="SourceGraphic" in2="effect1_backgroundBlur_101_1480" result="shape"/>
<feColorMatrix in="SourceAlpha" type="matrix" values="0 0 0 0 0 0 0 0 0 0 0 0 0 0 0 0 0 0 127 0" result="hardAlpha"/>
<feOffset dy="2"/>
<feGaussianBlur stdDeviation="4"/>
<feComposite in2="hardAlpha" operator="arithmetic" k2="-1" k3="1"/>
<feColorMatrix type="matrix" values="0 0 0 0 1 0 0 0 0 1 0 0 0 0 1 0 0 0 0.4 0"/>
<feBlend mode="normal" in2="shape" result="effect2_innerShadow_101_1480"/>
</filter>
<filter id="filter2_bi_101_1480" x="-6.66602" y="10.4766" width="66.6664" height="97.5228" filterUnits="userSpaceOnUse" color-interpolation-filters="sRGB">
<feFlood flood-opacity="0" result="BackgroundImageFix"/>
<feGaussianBlur in="BackgroundImageFix" stdDeviation="6"/>
<feComposite in2="SourceAlpha" operator="in" result="effect1_backgroundBlur_101_1480"/>
<feBlend mode="normal" in="SourceGraphic" in2="effect1_backgroundBlur_101_1480" result="shape"/>
<feColorMatrix in="SourceAlpha" type="matrix" values="0 0 0 0 0 0 0 0 0 0 0 0 0 0 0 0 0 0 127 0" result="hardAlpha"/>
<feOffset dy="2"/>
<feGaussianBlur stdDeviation="4"/>
<feComposite in2="hardAlpha" operator="arithmetic" k2="-1" k3="1"/>
<feColorMatrix type="matrix" values="0 0 0 0 1 0 0 0 0 1 0 0 0 0 1 0 0 0 0.4 0"/>
<feBlend mode="normal" in2="shape" result="effect2_innerShadow_101_1480"/>
</filter>
<linearGradient id="paint0_linear_101_1480" x1="19.5527" y1="16" x2="87.4308" y2="31.3209" gradientUnits="userSpaceOnUse">
<stop stop-color="#75A5FF"/>
<stop offset="0.703125" stop-color="#2339FF"/>
</linearGradient>
<linearGradient id="paint1_linear_101_1480" x1="19.5527" y1="16" x2="87.4308" y2="31.3209" gradientUnits="userSpaceOnUse">
<stop stop-color="#75A5FF"/>
<stop offset="0.703125" stop-color="#2339FF"/>
</linearGradient>
<linearGradient id="paint2_linear_101_1480" x1="19.5527" y1="16" x2="87.4308" y2="31.3209" gradientUnits="userSpaceOnUse">
<stop stop-color="#75A5FF"/>
<stop offset="0.703125" stop-color="#2339FF"/>
</linearGradient>
<linearGradient id="paint3_linear_101_1480" x1="5.59229" y1="0" x2="91.9814" y2="41.5293" gradientUnits="userSpaceOnUse">
<stop stop-color="#83E9FF"/>
<stop offset="0.453125" stop-color="#85A0FF"/>
</linearGradient>
<linearGradient id="paint4_linear_101_1480" x1="8.24281" y1="2.03638" x2="90.409" y2="2.03638" gradientUnits="userSpaceOnUse">
<stop stop-color="#3CDEB6"/>
<stop offset="0.65625" stop-color="#364AFF"/>
</linearGradient>
<linearGradient id="paint5_linear_101_1480" x1="48.0005" y1="22.4785" x2="100.364" y2="30.1946" gradientUnits="userSpaceOnUse">
<stop stop-color="#83E9FF"/>
<stop offset="0.453125" stop-color="#85A0FF"/>
</linearGradient>
<linearGradient id="paint6_linear_101_1480" x1="49.3338" y1="25.8204" x2="90.667" y2="25.8204" gradientUnits="userSpaceOnUse">
<stop stop-color="#3CDEB6"/>
<stop offset="0.65625" stop-color="#364AFF"/>
</linearGradient>
<linearGradient id="paint7_linear_101_1480" x1="5.33398" y1="22.4766" x2="57.6973" y2="30.1924" gradientUnits="userSpaceOnUse">
<stop stop-color="#83E9FF"/>
<stop offset="0.453125" stop-color="#85A0FF"/>
</linearGradient>
<linearGradient id="paint8_linear_101_1480" x1="6.66731" y1="25.8185" x2="48.0004" y2="25.8185" gradientUnits="userSpaceOnUse">
<stop stop-color="#3CDEB6"/>
<stop offset="0.65625" stop-color="#364AFF"/>
</linearGradient>
</defs>
</svg>
